<?xml version="1.0" encoding="utf-8"?>
<!-- Generator: Adobe Illustrator 23.0.1, SVG Export Plug-In . SVG Version: 6.00 Build 0)  -->
<svg version="1.1" id="Layer_1" xmlns="http://www.w3.org/2000/svg" xmlns:xlink="http://www.w3.org/1999/xlink" x="0px"
  y="0px" viewBox="0 0 281.9 63" style="enable-background:new 0 0 281.9 63;" xml:space="preserve">
  <style type="text/css">
    .st0 {
      fill-rule: evenodd;
      clip-rule: evenodd;
      fill: #F99E22;
    }

    .st1 {
      fill: #222222;
    }

    .st2 {
      fill: #777777;
    }

    .st3 {
      fill: #6C778C;
    }
  </style>
  <g>
    <g>
      <path class="st0" d="M28.6,6.8v5.6c-1.9,0.3-3.8,0.8-5.5,1.7c-1.9,0.9-3.7,2.2-5.3,3.8c-1.6,1.6-2.9,3.4-3.8,5.3
			c-0.8,1.8-1.4,3.6-1.7,5.5H6.7c0.2-1.9,0.6-3.7,1.3-5.5c1.2-3.4,3.1-6.5,5.9-9.3c2.7-2.7,5.9-4.7,9.3-5.8
			C24.8,7.5,26.7,7,28.6,6.8 M44.8,34.3h5.6H56c-0.2,1.9-0.6,3.7-1.3,5.5c-1.2,3.4-3.1,6.5-5.9,9.3c-2.7,2.7-5.9,4.7-9.3,5.9
			c-1.8,0.6-3.7,1.1-5.5,1.3v-5.6c1.9-0.3,3.8-0.8,5.5-1.7c1.9-0.9,3.7-2.2,5.3-3.8c1.6-1.6,2.9-3.4,3.8-5.3h-6.5
			c-0.4,0.5-0.8,1-1.2,1.4c-0.5,0.5-0.9,0.9-1.4,1.2c-1.7,1.3-3.6,2.1-5.5,2.5c-1.8,0.4-3.7,0.4-5.5,0c-2-0.4-3.9-1.2-5.5-2.5
			c-0.5-0.4-1-0.8-1.4-1.2c-0.5-0.5-0.9-0.9-1.2-1.4c-1.3-1.7-2.1-3.6-2.5-5.5c-0.4-1.8-0.4-3.7,0-5.5c0.4-2,1.2-3.9,2.5-5.5
			c0.4-0.5,0.8-1,1.2-1.4c0.5-0.5,0.9-0.9,1.4-1.2c1.7-1.3,3.6-2.1,5.5-2.5c1.8-0.4,3.7-0.4,5.5,0c2,0.4,3.9,1.2,5.5,2.5
			c0.5,0.4,1,0.8,1.4,1.2c0.5,0.5,0.9,0.9,1.2,1.4h6.5c-0.9-1.9-2.2-3.7-3.8-5.3c-1.6-1.6-3.4-2.9-5.3-3.8c-1.8-0.8-3.6-1.4-5.5-1.7
			V6.8C36,7,37.9,7.5,39.7,8.1c3.4,1.2,6.5,3.1,9.3,5.8c2.7,2.7,4.7,5.9,5.8,9.3h5.8c-1.4-4.8-3.9-9.4-7.7-13.2
			C49,6.2,44.5,3.7,39.7,2.3c-1.8-0.5-3.7-0.9-5.5-1c-1.8-0.2-3.7-0.2-5.5,0c-1.9,0.2-3.7,0.5-5.5,1C18.2,3.7,13.7,6.2,9.9,10
			c-3.8,3.8-6.4,8.3-7.7,13.2c-0.5,1.8-0.9,3.7-1,5.5c-0.2,1.8-0.2,3.7,0,5.5h5.6h5.6c0.3,1.9,0.8,3.8,1.7,5.5
			c0.9,1.9,2.2,3.7,3.8,5.3c1.6,1.6,3.4,2.9,5.3,3.8c1.8,0.8,3.6,1.4,5.5,1.7v5.6c-1.9-0.2-3.7-0.6-5.5-1.3
			c-3.4-1.2-6.5-3.1-9.3-5.8c-2.7-2.7-4.7-5.9-5.9-9.3H2.1c1.4,4.8,3.9,9.4,7.7,13.2c3.8,3.8,8.3,6.4,13.2,7.7
			c1.8,0.5,3.7,0.9,5.5,1c1.8,0.2,3.7,0.2,5.5,0c1.9-0.2,3.7-0.5,5.5-1c4.8-1.4,9.4-3.9,13.2-7.7c3.8-3.8,6.4-8.3,7.7-13.2
			c0.5-1.8,0.9-3.7,1-5.5c0.2-1.8,0.2-3.7,0-5.5H56h-5.6h-5.6V34.3z" />
      <rect x="42.5" y="28.8" class="st0" width="2.8" height="2" />
      <rect x="39" y="28.8" class="st0" width="2.7" height="2" />
      <rect x="35.4" y="28.8" class="st0" width="2.7" height="2" />
      <rect x="33" y="28.8" class="st0" width="1.4" height="2" />
      <rect x="43" y="32.9" class="st0" width="3.5" height="1.4" />
      <rect x="39.8" y="32.9" class="st0" width="2.6" height="1.4" />
      <rect x="36.8" y="32.9" class="st0" width="2.3" height="1.4" />
      <rect x="34.3" y="32.9" class="st0" width="1.5" height="1.4" />
      <rect x="32" y="32.9" class="st0" width="1.1" height="1.4" />
      <rect x="41.2" y="31.1" class="st0" width="1.9" height="1.4" />
      <rect x="43.6" y="31.1" class="st0" width="1.9" height="1.4" />
      <rect x="38.4" y="31.1" class="st0" width="1.9" height="1.4" />
      <rect x="36" y="31.1" class="st0" width="1.5" height="1.4" />
      <rect x="33.8" y="31.1" class="st0" width="1.1" height="1.4" />
      <rect x="31.6" y="31.1" class="st0" width="0.7" height="1.4" />
    </g>
    <g>
      <path class="st1" d="M79,35.5c-1.7-0.9-3.1-2.2-4.1-3.9c-1-1.7-1.5-3.5-1.5-5.6s0.5-4,1.5-5.6c1-1.7,2.4-3,4.1-3.9
			c1.7-0.9,3.7-1.4,5.9-1.4c1.8,0,3.5,0.3,5,1c1.5,0.6,2.7,1.6,3.7,2.8l-3.2,2.9c-1.4-1.7-3.2-2.5-5.3-2.5c-1.3,0-2.5,0.3-3.5,0.9
			c-1,0.6-1.8,1.4-2.4,2.4c-0.6,1-0.9,2.2-0.9,3.5c0,1.3,0.3,2.5,0.9,3.5c0.6,1,1.4,1.8,2.4,2.4c1,0.6,2.2,0.9,3.5,0.9
			c2.1,0,3.9-0.8,5.3-2.5l3.2,2.9c-1,1.2-2.3,2.2-3.8,2.8c-1.5,0.6-3.2,1-5,1C82.7,37,80.8,36.5,79,35.5z" />
      <path class="st1" d="M99.2,35.8c-1.4-0.7-2.4-1.7-3.2-3c-0.8-1.3-1.2-2.7-1.2-4.3s0.4-3.1,1.2-4.3c0.8-1.3,1.8-2.3,3.2-3
			c1.4-0.7,2.9-1.1,4.6-1.1s3.3,0.4,4.6,1.1c1.4,0.7,2.4,1.7,3.2,3c0.8,1.3,1.2,2.7,1.2,4.3s-0.4,3.1-1.2,4.3
			c-0.8,1.3-1.8,2.3-3.2,3c-1.4,0.7-2.9,1.1-4.6,1.1S100.5,36.5,99.2,35.8z M106.8,31.7c0.8-0.8,1.2-1.9,1.2-3.3
			c0-1.4-0.4-2.5-1.2-3.3c-0.8-0.8-1.8-1.2-3-1.2c-1.2,0-2.2,0.4-3,1.2c-0.8,0.8-1.2,1.9-1.2,3.3c0,1.4,0.4,2.5,1.2,3.3
			c0.8,0.8,1.8,1.2,3,1.2C105,33,106,32.5,106.8,31.7z" />
      <path class="st1" d="M122.7,20.7c1-0.4,2.1-0.6,3.3-0.6v4.4c-0.5,0-0.9-0.1-1.1-0.1c-1.4,0-2.4,0.4-3.2,1.1
			c-0.8,0.8-1.2,1.9-1.2,3.4v7.7h-4.7V20.3h4.5v2.2C120.9,21.7,121.7,21.1,122.7,20.7z" />
      <path class="st1" d="M144.5,29.8h-12.3c0.2,1,0.7,1.8,1.6,2.4c0.8,0.6,1.9,0.9,3.1,0.9c0.8,0,1.6-0.1,2.3-0.4
			c0.7-0.3,1.3-0.7,1.8-1.2l2.5,2.7c-1.5,1.8-3.8,2.6-6.7,2.6c-1.8,0-3.5-0.4-4.9-1.1c-1.4-0.7-2.5-1.7-3.3-3
			c-0.8-1.3-1.2-2.7-1.2-4.3c0-1.6,0.4-3,1.1-4.3c0.8-1.3,1.8-2.3,3.1-3c1.3-0.7,2.8-1.1,4.4-1.1c1.6,0,3,0.3,4.3,1
			c1.3,0.7,2.3,1.7,3,3c0.7,1.3,1.1,2.8,1.1,4.5C144.6,28.6,144.6,29,144.5,29.8z M133.5,24.5c-0.7,0.6-1.2,1.4-1.3,2.5h8
			c-0.2-1-0.6-1.9-1.3-2.5s-1.6-0.9-2.7-0.9C135.1,23.6,134.2,23.9,133.5,24.5z" />
      <path class="st2" d="M150.2,36.3c-1.6-0.5-2.8-1-3.8-1.8l1.7-3.7c0.9,0.7,2,1.2,3.2,1.6c1.3,0.4,2.5,0.6,3.8,0.6
			c1.4,0,2.4-0.2,3.1-0.6c0.7-0.4,1-1,1-1.7c0-0.5-0.2-0.9-0.6-1.3c-0.4-0.3-0.9-0.6-1.5-0.8c-0.6-0.2-1.4-0.4-2.5-0.7
			c-1.6-0.4-2.9-0.8-4-1.2c-1-0.4-1.9-1-2.6-1.8c-0.7-0.8-1.1-2-1.1-3.4c0-1.2,0.3-2.3,1-3.3c0.7-1,1.7-1.8,3-2.4
			c1.3-0.6,3-0.9,4.9-0.9c1.4,0,2.7,0.2,4,0.5c1.3,0.3,2.4,0.8,3.4,1.4l-1.5,3.7c-2-1.1-3.9-1.7-5.9-1.7c-1.4,0-2.4,0.2-3,0.7
			c-0.7,0.4-1,1-1,1.8c0,0.7,0.4,1.3,1.1,1.6c0.8,0.4,1.9,0.7,3.5,1c1.6,0.4,2.9,0.8,4,1.2c1,0.4,1.9,1,2.6,1.8
			c0.7,0.8,1.1,1.9,1.1,3.4c0,1.2-0.3,2.3-1,3.3c-0.7,1-1.7,1.8-3,2.4s-3,0.9-4.9,0.9C153.4,37,151.8,36.7,150.2,36.3z" />
      <path class="st2" d="M177.6,35.8c-0.5,0.3-1,0.6-1.7,0.8c-0.7,0.2-1.4,0.3-2.1,0.3c-1.9,0-3.4-0.5-4.5-1.5c-1.1-1-1.6-2.4-1.6-4.4
			v-6.7h-2.5v-3.6h2.5v-4h4.7v4h4.1v3.6h-4.1v6.6c0,0.7,0.2,1.2,0.5,1.6c0.4,0.4,0.9,0.6,1.5,0.6c0.7,0,1.4-0.2,1.9-0.6L177.6,35.8z
			" />
      <path class="st2" d="M187.1,20.7c1-0.4,2.1-0.6,3.3-0.6v4.4c-0.5,0-0.9-0.1-1.1-0.1c-1.4,0-2.4,0.4-3.2,1.1
			c-0.8,0.8-1.2,1.9-1.2,3.4v7.7h-4.7V20.3h4.5v2.2C185.3,21.7,186.1,21.1,187.1,20.7z" />
      <path class="st2" d="M205.5,21.9c1.4,1.2,2,3,2,5.4v9.3h-4.4v-2c-0.9,1.5-2.5,2.3-5,2.3c-1.3,0-2.3-0.2-3.3-0.6
			c-0.9-0.4-1.6-1-2.1-1.8c-0.5-0.7-0.7-1.6-0.7-2.5c0-1.5,0.6-2.7,1.7-3.6c1.1-0.9,2.9-1.3,5.3-1.3h3.8c0-1-0.3-1.8-0.9-2.4
			c-0.6-0.6-1.6-0.8-2.8-0.8c-0.9,0-1.7,0.1-2.6,0.4c-0.8,0.3-1.5,0.6-2.1,1.1l-1.7-3.3c0.9-0.6,2-1.1,3.2-1.5
			c1.2-0.3,2.5-0.5,3.8-0.5C202.2,20,204.1,20.7,205.5,21.9z M201.5,33.1c0.6-0.4,1.1-0.9,1.3-1.7v-1.7h-3.2c-1.9,0-2.9,0.6-2.9,1.9
			c0,0.6,0.2,1.1,0.7,1.4c0.5,0.4,1.1,0.5,2,0.5C200.1,33.6,200.8,33.5,201.5,33.1z" />
      <path class="st2" d="M222.3,35.8c-0.5,0.3-1,0.6-1.7,0.8c-0.7,0.2-1.4,0.3-2.1,0.3c-1.9,0-3.4-0.5-4.5-1.5c-1.1-1-1.6-2.4-1.6-4.4
			v-6.7h-2.5v-3.6h2.5v-4h4.7v4h4.1v3.6h-4.1v6.6c0,0.7,0.2,1.2,0.5,1.6c0.4,0.4,0.9,0.6,1.5,0.6c0.7,0,1.4-0.2,1.9-0.6L222.3,35.8z
			" />
      <path class="st2" d="M240.3,29.8H228c0.2,1,0.7,1.8,1.6,2.4c0.8,0.6,1.9,0.9,3.1,0.9c0.8,0,1.6-0.1,2.3-0.4
			c0.7-0.3,1.3-0.7,1.8-1.2l2.5,2.7c-1.5,1.8-3.8,2.6-6.7,2.6c-1.8,0-3.5-0.4-4.9-1.1c-1.4-0.7-2.5-1.7-3.3-3
			c-0.8-1.3-1.2-2.7-1.2-4.3c0-1.6,0.4-3,1.1-4.3c0.8-1.3,1.8-2.3,3.1-3c1.3-0.7,2.8-1.1,4.4-1.1c1.6,0,3,0.3,4.3,1
			c1.3,0.7,2.3,1.7,3,3c0.7,1.3,1.1,2.8,1.1,4.5C240.4,28.6,240.4,29,240.3,29.8z M229.3,24.5c-0.7,0.6-1.2,1.4-1.3,2.5h8
			c-0.2-1-0.6-1.9-1.3-2.5s-1.6-0.9-2.7-0.9C230.9,23.6,230,23.9,229.3,24.5z" />
      <path class="st2" d="M260.4,20.3v13.6c0,3-0.8,5.2-2.3,6.7c-1.6,1.5-3.8,2.2-6.8,2.2c-1.6,0-3.1-0.2-4.5-0.6
			c-1.4-0.4-2.6-0.9-3.5-1.7l1.9-3.4c0.7,0.6,1.6,1,2.6,1.3c1,0.3,2.1,0.5,3.1,0.5c1.6,0,2.8-0.4,3.6-1.1c0.8-0.7,1.2-1.9,1.2-3.3
			v-0.7c-1.2,1.4-2.9,2-5.1,2c-1.5,0-2.9-0.3-4.1-1c-1.2-0.7-2.2-1.6-3-2.8c-0.7-1.2-1.1-2.6-1.1-4.1c0-1.6,0.4-2.9,1.1-4.1
			c0.7-1.2,1.7-2.1,3-2.8c1.2-0.7,2.6-1,4.1-1c2.4,0,4.2,0.8,5.4,2.3v-2.1H260.4z M254.5,30.8c0.8-0.7,1.2-1.7,1.2-2.9
			c0-1.2-0.4-2.2-1.2-2.9c-0.8-0.7-1.8-1.1-3.1-1.1c-1.3,0-2.3,0.4-3.1,1.1c-0.8,0.7-1.2,1.7-1.2,2.9c0,1.2,0.4,2.2,1.2,2.9
			c0.8,0.7,1.8,1.1,3.1,1.1C252.7,31.9,253.7,31.6,254.5,30.8z" />
      <path class="st2" d="M280.9,20.3l-7.4,17.3c-0.7,1.9-1.7,3.2-2.8,4c-1.1,0.8-2.4,1.2-4,1.2c-0.8,0-1.7-0.1-2.5-0.4
			c-0.8-0.3-1.5-0.6-2-1.1l1.7-3.4c0.4,0.3,0.8,0.6,1.3,0.8c0.5,0.2,0.9,0.3,1.4,0.3c0.6,0,1.2-0.2,1.6-0.5c0.4-0.3,0.8-0.8,1.1-1.6
			l0.1-0.2l-7.1-16.4h4.9l4.6,11.1l4.6-11.1H280.9z" />
    </g>
    <g>
      <path class="st3" d="M172.6,50.9L172.6,50.9l0,0.9h-1v-9.4h1v4.2h0c0.5-0.8,1.2-1.3,2.2-1.3c0.8,0,1.4,0.3,1.9,0.9
			c0.5,0.6,0.7,1.3,0.7,2.3c0,1.1-0.3,1.9-0.8,2.5s-1.2,1-2.1,1C173.6,51.9,173,51.6,172.6,50.9z M172.6,48.3v0.9
			c0,0.5,0.2,1,0.5,1.3c0.3,0.4,0.8,0.5,1.3,0.5c0.6,0,1.1-0.2,1.4-0.7c0.3-0.5,0.5-1.1,0.5-2c0-0.7-0.2-1.3-0.5-1.7
			c-0.3-0.4-0.8-0.6-1.3-0.6c-0.6,0-1.1,0.2-1.4,0.6C172.7,47.2,172.6,47.7,172.6,48.3z" />
      <path class="st3" d="M184,45.4l-2.9,7.4c-0.5,1.3-1.3,2-2.2,2c-0.3,0-0.5,0-0.7-0.1v-0.9c0.2,0.1,0.4,0.1,0.6,0.1
			c0.5,0,0.9-0.3,1.2-0.9l0.5-1.2l-2.5-6.3h1.1l1.7,4.9c0,0.1,0.1,0.2,0.1,0.5h0c0-0.1,0.1-0.3,0.1-0.5l1.8-4.9H184z" />
      <path class="st3" d="M194.8,51.4c-0.7,0.3-1.5,0.5-2.5,0.5c-1.3,0-2.3-0.4-3-1.2c-0.8-0.8-1.1-1.9-1.1-3.2c0-1.4,0.4-2.6,1.3-3.4
			s1.9-1.3,3.3-1.3c0.8,0,1.5,0.1,2.1,0.4v1.1c-0.6-0.4-1.3-0.5-2.1-0.5c-1,0-1.8,0.3-2.5,1c-0.6,0.7-1,1.6-1,2.7
			c0,1.1,0.3,1.9,0.9,2.6c0.6,0.6,1.4,1,2.3,1c0.9,0,1.7-0.2,2.3-0.6V51.4z" />
      <path class="st3" d="M199.1,51.9c-0.9,0-1.7-0.3-2.2-0.9c-0.6-0.6-0.8-1.4-0.8-2.4c0-1.1,0.3-1.9,0.9-2.5s1.4-0.9,2.4-0.9
			c0.9,0,1.7,0.3,2.2,0.9c0.5,0.6,0.8,1.4,0.8,2.4c0,1-0.3,1.8-0.9,2.4C200.8,51.6,200.1,51.9,199.1,51.9z M199.2,46.1
			c-0.7,0-1.2,0.2-1.5,0.7s-0.6,1.1-0.6,1.8c0,0.8,0.2,1.3,0.6,1.8c0.4,0.4,0.9,0.7,1.5,0.7c0.7,0,1.2-0.2,1.5-0.6
			c0.4-0.4,0.5-1,0.5-1.8c0-0.8-0.2-1.4-0.5-1.8C200.3,46.4,199.8,46.1,199.2,46.1z" />
      <path class="st3" d="M207.2,46.5c-0.2-0.1-0.4-0.2-0.8-0.2c-0.4,0-0.8,0.2-1.1,0.6c-0.3,0.4-0.4,1-0.4,1.7v3.2h-1v-6.3h1v1.3h0
			c0.1-0.4,0.4-0.8,0.7-1c0.3-0.2,0.6-0.4,1-0.4c0.3,0,0.5,0,0.6,0.1V46.5z" />
      <path class="st3"
        d="M213.4,48.9h-4.5c0,0.7,0.2,1.3,0.6,1.6s0.9,0.6,1.5,0.6c0.7,0,1.4-0.2,2-0.7v1c-0.6,0.4-1.3,0.6-2.2,0.6
			c-0.9,0-1.6-0.3-2.1-0.9c-0.5-0.6-0.8-1.4-0.8-2.4c0-1,0.3-1.8,0.8-2.4c0.6-0.6,1.3-0.9,2.1-0.9s1.5,0.3,1.9,0.8s0.7,1.3,0.7,2.2
			V48.9z M212.3,48c0-0.6-0.1-1-0.4-1.4c-0.3-0.3-0.7-0.5-1.2-0.5c-0.5,0-0.9,0.2-1.2,0.5c-0.3,0.3-0.5,0.8-0.6,1.3H212.3z" />
      <path class="st3" d="M218.2,48.6h-3.4v-0.8h3.4V48.6z" />
      <path class="st3" d="M226.2,51.4c-0.7,0.3-1.5,0.5-2.5,0.5c-1.3,0-2.3-0.4-3-1.2c-0.8-0.8-1.1-1.9-1.1-3.2c0-1.4,0.4-2.6,1.3-3.4
			s1.9-1.3,3.3-1.3c0.8,0,1.5,0.1,2.1,0.4v1.1c-0.6-0.4-1.3-0.5-2.1-0.5c-1,0-1.8,0.3-2.5,1c-0.6,0.7-1,1.6-1,2.7
			c0,1.1,0.3,1.9,0.9,2.6c0.6,0.6,1.4,1,2.3,1c0.9,0,1.7-0.2,2.3-0.6V51.4z" />
      <path class="st3" d="M227.6,51.4v-1.2c0.1,0.1,0.3,0.2,0.5,0.3c0.2,0.1,0.4,0.2,0.6,0.3c0.2,0.1,0.4,0.1,0.7,0.2s0.4,0.1,0.6,0.1
			c0.6,0,1.1-0.1,1.4-0.4c0.3-0.2,0.5-0.6,0.5-1c0-0.2-0.1-0.4-0.2-0.6c-0.1-0.2-0.3-0.3-0.4-0.5s-0.4-0.3-0.7-0.4
			c-0.3-0.1-0.5-0.3-0.8-0.4c-0.3-0.2-0.6-0.3-0.9-0.5c-0.3-0.2-0.5-0.3-0.7-0.5c-0.2-0.2-0.4-0.4-0.5-0.7c-0.1-0.2-0.2-0.5-0.2-0.9
			c0-0.4,0.1-0.8,0.3-1.1c0.2-0.3,0.4-0.5,0.7-0.7c0.3-0.2,0.6-0.3,1-0.4c0.4-0.1,0.7-0.1,1.1-0.1c0.9,0,1.5,0.1,1.9,0.3v1.2
			c-0.5-0.4-1.2-0.5-2-0.5c-0.2,0-0.5,0-0.7,0.1c-0.2,0-0.4,0.1-0.6,0.2c-0.2,0.1-0.3,0.2-0.4,0.4s-0.2,0.4-0.2,0.6
			c0,0.2,0,0.4,0.1,0.6c0.1,0.2,0.2,0.3,0.4,0.5c0.2,0.1,0.4,0.3,0.6,0.4c0.2,0.1,0.5,0.3,0.8,0.4c0.3,0.2,0.6,0.3,0.9,0.5
			s0.5,0.4,0.7,0.6c0.2,0.2,0.4,0.4,0.5,0.7c0.1,0.3,0.2,0.5,0.2,0.9c0,0.4-0.1,0.8-0.3,1.1c-0.2,0.3-0.4,0.5-0.7,0.7
			c-0.3,0.2-0.6,0.3-1,0.4s-0.8,0.1-1.2,0.1c-0.1,0-0.3,0-0.5,0c-0.2,0-0.4-0.1-0.6-0.1c-0.2,0-0.4-0.1-0.6-0.2
			C227.8,51.6,227.7,51.5,227.6,51.4z" />
      <path class="st3" d="M235.8,51.8h-1v-8.9h1V51.8z" />
    </g>
  </g>
</svg>